<?xml version="1.0" encoding="UTF-8"?>
<svg width="18px" height="18px" viewBox="0 0 18 18" version="1.1" xmlns="http://www.w3.org/2000/svg" xmlns:xlink="http://www.w3.org/1999/xlink">
    <!-- Generator: Sketch 52.3 (67297) - http://www.bohemiancoding.com/sketch -->
    <title>ic_scan</title>
    <desc>Created with Sketch.</desc>
    <g id="Page-1" stroke="none" stroke-width="1" fill="none" fill-rule="evenodd">
        <g id="登陆手机--获取验证码1" transform="translate(-231.000000, -441.000000)" fill="#FFFFFF" fill-rule="nonzero">
            <g id="Group-6" transform="translate(45.000000, 429.000000)">
                <g id="ic_scan" transform="translate(186.000000, 12.000000)">
                    <path d="M6.4707486,16.7693304 L2.34442458,16.7693304 C2.15195531,16.7693304 1.95284916,16.7815848 1.75917318,16.7669196 C1.70515897,16.7557846 1.65189336,16.7412921 1.59968715,16.7235268 C1.55822524,16.702793 1.51794052,16.6797893 1.47901676,16.6546205 C1.47157542,16.6497991 1.4643352,16.6445759 1.45709497,16.6395536 C1.43497207,16.6194643 1.41124022,16.5947545 1.40882682,16.5925446 C1.38871508,16.5724554 1.37081564,16.5497545 1.35130726,16.5290625 C1.32422298,16.4881282 1.2996418,16.4455952 1.27769832,16.4016964 C1.26020801,16.3506826 1.24596726,16.2986143 1.23506145,16.2458036 C1.22359777,16.0885045 1.23184358,15.9275893 1.23184358,15.7710938 L1.23184358,11.62125 C1.23184358,11.3052455 0.953698324,11.0027009 0.627284916,11.0173661 C0.300871508,11.0320313 0.022726257,11.2825446 0.022726257,11.62125 L0.022726257,16.1626339 C0.0254814561,16.5670626 0.162098139,16.9592206 0.411284916,17.2779911 C0.67273743,17.6170982 1.06773184,17.8742411 1.4957095,17.9421429 C1.64109416,17.9654465 1.78810736,17.9771353 1.93535196,17.9770982 L4.26368715,17.9770982 C4.9877095,17.9770982 5.71052514,17.9835268 6.43374302,17.9770982 L6.47014525,17.9770982 C6.78630168,17.9770982 7.08938547,17.6992634 7.07470391,17.3732143 C7.06002235,17.0471652 6.80963128,16.7693304 6.4707486,16.7693304 Z M1.46755307,16.6487946 C1.50420332,16.678661 1.53863118,16.712694 1.57041022,16.7504723 C1.56384487,16.7597157 1.52007587,16.7134986 1.46974152,16.6515677 L1.46755307,16.6487946 Z M17.996581,11.6582143 L17.996581,11.62125 C17.996581,11.3052455 17.7186369,11.0027009 17.3922235,11.0173661 C17.0658101,11.0320313 16.7876648,11.2825446 16.7876648,11.62125 L16.7876648,15.6642188 C16.7876648,15.8544643 16.7997318,16.0513393 16.7850503,16.2427902 C16.7739967,16.2967006 16.7594864,16.3498459 16.7416089,16.4018973 C16.7210417,16.4433746 16.6980755,16.4836212 16.6728268,16.522433 L16.657743,16.5443304 C16.6376313,16.5664286 16.6126927,16.5901339 16.6104804,16.5925446 C16.5903687,16.6126339 16.5678436,16.6305134 16.5471285,16.65 C16.5061061,16.677098 16.463456,16.7016532 16.419419,16.7235268 C16.3684238,16.7410215 16.3163627,16.7552468 16.2635531,16.7661161 C16.1078883,16.7773661 15.9484022,16.7693304 15.7933408,16.7693304 L11.650324,16.7693304 C11.3341676,16.7693304 11.0312849,17.0471652 11.0459665,17.3732143 C11.060648,17.6992634 11.3114413,17.9770982 11.650324,17.9770982 L15.977162,17.9770982 C16.4049385,17.9770982 16.8341229,17.9264732 17.1937207,17.6677232 C17.5631732,17.4021429 17.8555978,17.0262723 17.9497207,16.5728571 C17.9820632,16.4127806 17.9977667,16.2497953 17.996581,16.0864955 L17.996581,13.8029464 C17.996581,13.0881696 18.0042235,12.3729911 17.996581,11.6582143 Z M16.6675978,16.6080134 C16.6979148,16.5714957 16.7321746,16.5370838 16.7700002,16.5051562 C16.7755858,16.5131806 16.7290392,16.5569496 16.6675978,16.6080134 Z M11.6157318,1.23066964 L15.6821229,1.23066964 C15.8721788,1.23066964 16.0690726,1.21861607 16.2605363,1.23328125 C16.314441,1.24432272 16.3675787,1.25881694 16.4196201,1.27667411 C16.4611672,1.29717431 16.5014613,1.32011632 16.5402905,1.34537946 C16.5477318,1.35020089 16.5551732,1.35542411 16.5624134,1.36044643 C16.5845363,1.38154018 16.6082682,1.40524554 16.6104804,1.40765625 C16.6305922,1.42774554 16.6486927,1.45024554 16.6682011,1.4709375 C16.6952553,1.51195978 16.7198353,1.55455778 16.7418101,1.59850446 C16.7593513,1.64957084 16.7735929,1.70170929 16.7844469,1.75459821 C16.7963128,1.9153125 16.7876648,2.07964286 16.7876648,2.23955357 L16.7876648,6.46875 C16.7876648,6.78455357 17.0656089,7.08729911 17.3922235,7.07263393 C17.718838,7.05796875 17.996581,6.80725446 17.996581,6.46875 L17.996581,2.07723214 C17.996581,1.66560268 17.9601788,1.265625 17.737743,0.90140625 C17.3892067,0.330870536 16.7784134,0.0229017857 16.1181453,0.0229017857 L13.8390838,0.0229017857 C13.1104358,0.0229017857 12.3813855,0.0164732143 11.6529385,0.0229017857 L11.6157318,0.0229017857 C11.2995754,0.0229017857 10.9966927,0.300736607 11.0123799,0.626785714 C11.028067,0.952834821 11.2768492,1.23066964 11.6157318,1.23066964 Z M16.6262538,1.43175343 C16.5896895,1.40172953 16.5552701,1.36763545 16.5233966,1.32986844 C16.5306401,1.3215324 16.5733765,1.36784376 16.6262538,1.42897475 L16.6262538,1.43175343 Z M0.022726257,6.46875 C0.022726257,6.78415179 0.301675978,7.08689732 0.627284916,7.07142857 C0.952893855,7.05595982 1.23184358,6.80604911 1.23184358,6.46754464 L1.23184358,2.34642857 C1.23184358,2.15296875 1.2193743,1.95227679 1.23425698,1.75761161 C1.24540446,1.70365768 1.25991312,1.65045152 1.27769832,1.59830357 C1.29836724,1.5568409 1.32139946,1.51659627 1.34668156,1.47776786 C1.35150838,1.47033482 1.35673743,1.46290179 1.36176536,1.45566964 C1.38187709,1.43357143 1.40661453,1.40986607 1.40882682,1.40765625 C1.42893855,1.38756696 1.4516648,1.36948661 1.47237989,1.35 C1.51340555,1.32301967 1.55598159,1.2984685 1.59988827,1.27647321 C1.65101945,1.25897666 1.70321452,1.24475143 1.75615642,1.23388393 C1.91483799,1.22223214 2.07794413,1.23066964 2.23562011,1.23066964 L6.41705028,1.23066964 C6.7332067,1.23066964 7.0362905,0.953035714 7.02160894,0.626785714 C7.00692737,0.300535714 6.75593296,0.0229017857 6.41705028,0.0229017857 L2.03128492,0.0229017857 C1.58721788,0.0229017857 1.14958659,0.0871875 0.782949721,0.364419643 C0.419329609,0.638839286 0.137564246,1.02395089 0.0589273743,1.48138393 C0.0337133429,1.62971072 0.0213324177,1.77993074 0.0219217877,1.93037946 L0.0219217877,4.26194196 C0.0219217877,4.98515625 0.0158882682,5.70837054 0.0219217877,6.42997768 C0.0229273743,6.44283482 0.022726257,6.45569196 0.022726257,6.46875 Z M1.43251545,1.46651786 C1.40202807,1.50288691 1.36783119,1.53728381 1.33025643,1.569375 C1.32374904,1.56068285 1.37116004,1.51794643 1.43251545,1.46651786 Z M15.0335196,9.60388393 L15.054838,9.60388393 C15.3709944,9.60388393 15.6738771,9.32604911 15.6593966,9 C15.6449162,8.67395089 15.3937207,8.39611607 15.054838,8.39611607 L4.4489162,8.39611607 C3.96140782,8.39611607 3.47329609,8.38808036 2.98598883,8.39611607 L2.96467039,8.39611607 C2.64851397,8.39611607 2.34543017,8.67395089 2.36011173,9 C2.3747933,9.32604911 2.62578771,9.60388393 2.96467039,9.60388393 L13.5705922,9.60388393 C14.0581006,9.60388393 14.5462123,9.61191964 15.0335196,9.60388393 Z" id="Shape"></path>
                </g>
            </g>
        </g>
    </g>
</svg>